<svg width="24" height="18" viewBox="0 0 24 18" fill="none" xmlns="http://www.w3.org/2000/svg">
<path d="M12 0C17.5915 4.56585e-05 22.29 3.82435 23.6221 9C22.29 14.1757 17.5915 18 12 18C6.40846 18 1.71006 14.1757 0.37793 9C1.71006 3.82432 6.40846 0 12 0ZM12 2C7.52441 2 3.73112 4.94186 2.45703 9C3.73112 13.0581 7.52441 16 12 16C16.4755 16 20.269 13.0581 21.543 9C20.269 4.94189 16.4755 2.00004 12 2ZM12 5C14.2091 5.00005 16 6.79089 16 9C16 11.2091 14.2091 12.9999 12 13C9.79084 13 8 11.2091 8 9C8 6.79086 9.79084 5 12 5ZM12 7C10.8954 7 10 7.8954 10 9C10 10.1046 10.8954 11 12 11C13.1045 10.9999 14 10.1046 14 9C14 7.89543 13.1045 7.00005 12 7Z" fill="white" fill-opacity="0.6"/>
</svg>
