<svg width="285" height="182" viewBox="0 0 285 182" fill="none" xmlns="http://www.w3.org/2000/svg">
<g filter="url(#filter0_d_1_77)">
<path d="M71.8655 145.782C45.6181 148.95 22.7356 138.219 20.7561 121.814C18.7765 105.409 38.4495 89.543 64.6969 86.3757C90.9443 83.2084 113.827 93.9395 115.806 110.344C117.786 126.749 98.113 142.614 71.8655 145.782Z" fill="url(#paint0_linear_1_77)"/>
<path d="M84.2668 74.4328C59.9522 64.0521 34.9817 67.956 28.4938 83.1526C22.0058 98.3493 36.4572 119.084 60.7716 129.465C85.0863 139.845 110.057 135.941 116.545 120.745C123.033 105.548 108.581 84.8136 84.2668 74.4328Z" fill="url(#paint1_linear_1_77)"/>
<path d="M49.7781 91.1284C61.0138 120.797 85.1544 139.157 103.698 132.134C122.241 125.112 128.164 95.3676 116.929 65.6983C105.693 36.0291 81.5528 17.6703 63.0097 24.6925C44.4664 31.7149 38.5425 61.4592 49.7781 91.1284Z" fill="url(#paint2_linear_1_77)"/>
<path d="M74.2652 65.1314C61.8084 94.3089 66.4931 124.273 84.7291 132.059C102.965 139.844 127.846 122.503 140.304 93.3255C152.761 64.148 148.076 34.1835 129.839 26.398C111.604 18.6124 86.7222 35.9538 74.2652 65.1314Z" fill="url(#paint3_linear_1_77)"/>
<path d="M153.487 120.448C150.258 124.563 144.304 125.282 140.189 122.053C136.075 118.824 135.355 112.871 138.584 108.756C141.813 104.641 147.767 103.923 151.882 107.151C155.996 110.38 156.714 116.333 153.487 120.448Z" fill="url(#paint4_linear_1_77)"/>
<path d="M196.475 94.5342V78.9196H199.997V94.5342H196.475ZM191.517 81.7688V78.6952H204.955V81.7688H191.517ZM209.385 94.781C208.204 94.781 207.149 94.5417 206.222 94.063C205.31 93.5695 204.592 92.889 204.068 92.0215C203.545 91.154 203.283 90.1744 203.283 89.0825C203.283 87.9907 203.537 87.0185 204.046 86.166C204.569 85.2985 205.272 84.618 206.155 84.1244C207.037 83.6309 208.032 83.3841 209.139 83.3841C210.216 83.3841 211.165 83.6159 211.988 84.0796C212.81 84.5432 213.454 85.1864 213.917 86.009C214.396 86.8316 214.635 87.7738 214.635 88.8357C214.635 89.0302 214.62 89.2396 214.59 89.4639C214.575 89.6733 214.538 89.9201 214.478 90.2043L205.078 90.2267V87.871L213.02 87.8486L211.539 88.8357C211.524 88.2076 211.427 87.6916 211.248 87.2877C211.068 86.869 210.799 86.5549 210.44 86.3455C210.096 86.1211 209.67 86.009 209.161 86.009C208.623 86.009 208.152 86.1361 207.748 86.3904C207.359 86.6297 207.052 86.9737 206.828 87.4224C206.618 87.871 206.514 88.417 206.514 89.0601C206.514 89.7032 206.626 90.2566 206.85 90.7203C207.09 91.169 207.419 91.5204 207.837 91.7747C208.271 92.014 208.78 92.1337 209.363 92.1337C209.901 92.1337 210.388 92.0439 210.821 91.8644C211.255 91.67 211.636 91.3858 211.965 91.0119L213.85 92.8964C213.312 93.5246 212.661 93.9957 211.898 94.3098C211.135 94.6239 210.298 94.781 209.385 94.781ZM220.846 94.7585C219.844 94.7585 218.947 94.5117 218.154 94.0182C217.376 93.5246 216.756 92.8516 216.292 91.999C215.843 91.1465 215.619 90.1744 215.619 89.0825C215.619 87.9907 215.843 87.0185 216.292 86.166C216.756 85.3135 217.376 84.6404 218.154 84.1469C218.947 83.6533 219.844 83.4065 220.846 83.4065C221.579 83.4065 222.237 83.5486 222.821 83.8328C223.419 84.117 223.905 84.5133 224.279 85.0218C224.653 85.5154 224.862 86.0837 224.907 86.7269V91.4382C224.862 92.0813 224.653 92.6571 224.279 93.1657C223.92 93.6592 223.441 94.0481 222.843 94.3323C222.245 94.6164 221.579 94.7585 220.846 94.7585ZM221.542 91.6625C222.275 91.6625 222.865 91.4232 223.314 90.9446C223.763 90.451 223.987 89.8304 223.987 89.0825C223.987 88.574 223.882 88.1253 223.673 87.7364C223.479 87.3476 223.194 87.0484 222.821 86.839C222.462 86.6147 222.043 86.5025 221.564 86.5025C221.086 86.5025 220.659 86.6147 220.285 86.839C219.926 87.0484 219.635 87.3476 219.41 87.7364C219.201 88.1253 219.096 88.574 219.096 89.0825C219.096 89.5761 219.201 90.0173 219.41 90.4062C219.62 90.795 219.912 91.1017 220.285 91.326C220.659 91.5504 221.078 91.6625 221.542 91.6625ZM223.853 94.5342V91.5952L224.369 88.9479L223.853 86.3006V83.6309H227.218V94.5342H223.853ZM233.83 94.5342V78.9196H237.352V94.5342H233.83ZM228.872 81.7688V78.6952H242.31V81.7688H228.872ZM243.963 94.5342V83.6309H247.396V94.5342H243.963ZM245.691 82.1277C245.152 82.1277 244.703 81.9483 244.344 81.5893C244 81.2154 243.828 80.7667 243.828 80.2432C243.828 79.7048 244 79.2561 244.344 78.8971C244.703 78.5382 245.152 78.3587 245.691 78.3587C246.229 78.3587 246.67 78.5382 247.014 78.8971C247.358 79.2561 247.53 79.7048 247.53 80.2432C247.53 80.7667 247.358 81.2154 247.014 81.5893C246.67 81.9483 246.229 82.1277 245.691 82.1277ZM249.813 94.5342V83.6309H253.245V94.5342H249.813ZM256.79 94.5342V88.1627C256.79 87.6093 256.618 87.183 256.274 86.8839C255.945 86.5698 255.534 86.4128 255.04 86.4128C254.696 86.4128 254.389 86.4876 254.12 86.6371C253.851 86.7717 253.634 86.9662 253.47 87.2204C253.32 87.4747 253.245 87.7888 253.245 88.1627L251.922 87.5794C251.922 86.7119 252.109 85.9716 252.482 85.3584C252.856 84.7302 253.365 84.2516 254.008 83.9225C254.651 83.5785 255.377 83.4065 256.184 83.4065C256.947 83.4065 257.628 83.5785 258.226 83.9225C258.839 84.2665 259.325 84.7451 259.684 85.3584C260.043 85.9716 260.222 86.7044 260.222 87.557V94.5342H256.79ZM263.767 94.5342V88.1627C263.767 87.6093 263.595 87.183 263.251 86.8839C262.922 86.5698 262.511 86.4128 262.017 86.4128C261.673 86.4128 261.367 86.4876 261.097 86.6371C260.828 86.7717 260.611 86.9662 260.447 87.2204C260.297 87.4747 260.222 87.7888 260.222 88.1627L258.248 87.8935C258.278 86.9662 258.495 86.1735 258.899 85.5154C259.318 84.8424 259.864 84.3264 260.537 83.9674C261.225 83.5935 261.995 83.4065 262.847 83.4065C263.685 83.4065 264.425 83.586 265.068 83.945C265.726 84.289 266.242 84.79 266.616 85.4481C267.005 86.0912 267.2 86.869 267.2 87.7813V94.5342H263.767ZM274.784 94.781C273.602 94.781 272.548 94.5417 271.62 94.063C270.708 93.5695 269.99 92.889 269.467 92.0215C268.943 91.154 268.681 90.1744 268.681 89.0825C268.681 87.9907 268.936 87.0185 269.444 86.166C269.968 85.2985 270.671 84.618 271.553 84.1244C272.436 83.6309 273.43 83.3841 274.537 83.3841C275.614 83.3841 276.564 83.6159 277.386 84.0796C278.209 84.5432 278.852 85.1864 279.316 86.009C279.794 86.8316 280.033 87.7738 280.033 88.8357C280.033 89.0302 280.019 89.2396 279.989 89.4639C279.974 89.6733 279.936 89.9201 279.876 90.2043L270.476 90.2267V87.871L278.418 87.8486L276.937 88.8357C276.923 88.2076 276.825 87.6916 276.646 87.2877C276.466 86.869 276.197 86.5549 275.838 86.3455C275.494 86.1211 275.068 86.009 274.559 86.009C274.021 86.009 273.55 86.1361 273.146 86.3904C272.757 86.6297 272.451 86.9737 272.226 87.4224C272.017 87.871 271.912 88.417 271.912 89.0601C271.912 89.7032 272.024 90.2566 272.249 90.7203C272.488 91.169 272.817 91.5204 273.236 91.7747C273.669 92.014 274.178 92.1337 274.761 92.1337C275.3 92.1337 275.786 92.0439 276.22 91.8644C276.653 91.67 277.035 91.3858 277.364 91.0119L279.248 92.8964C278.71 93.5246 278.059 93.9957 277.296 94.3098C276.534 94.6239 275.696 94.781 274.784 94.781Z" fill="white"/>
</g>
<defs>
<filter id="filter0_d_1_77" x="0" y="0" width="285.068" height="181.068" filterUnits="userSpaceOnUse" color-interpolation-filters="sRGB">
<feFlood flood-opacity="0" result="BackgroundImageFix"/>
<feColorMatrix in="SourceAlpha" type="matrix" values="0 0 0 0 0 0 0 0 0 0 0 0 0 0 0 0 0 0 127 0" result="hardAlpha"/>
<feOffset dy="4"/>
<feGaussianBlur stdDeviation="2"/>
<feComposite in2="hardAlpha" operator="out"/>
<feColorMatrix type="matrix" values="0 0 0 0 0 0 0 0 0 0 0 0 0 0 0 0 0 0 0.25 0"/>
<feBlend mode="normal" in2="BackgroundImageFix" result="effect1_dropShadow_1_77"/>
<feBlend mode="normal" in="SourceGraphic" in2="effect1_dropShadow_1_77" result="shape"/>
</filter>
<linearGradient id="paint0_linear_1_77" x1="207.417" y1="102.387" x2="29.2977" y2="20.5657" gradientUnits="userSpaceOnUse">
<stop stop-color="#6100A5"/>
<stop offset="0.515973" stop-color="#D20661" stop-opacity="0.6"/>
<stop offset="0.851946" stop-color="#F2B53B"/>
</linearGradient>
<linearGradient id="paint1_linear_1_77" x1="136.861" y1="148.32" x2="3.75899" y2="169.036" gradientUnits="userSpaceOnUse">
<stop offset="0.00520833" stop-color="#6100A5"/>
<stop offset="0.302727" stop-color="#D20661" stop-opacity="0.6"/>
<stop offset="0.885006" stop-color="#F2B53B"/>
</linearGradient>
<linearGradient id="paint2_linear_1_77" x1="54.4674" y1="-55.2982" x2="177.485" y2="141.943" gradientUnits="userSpaceOnUse">
<stop stop-color="#6100A5"/>
<stop offset="0.370879" stop-color="#D20661" stop-opacity="0.6"/>
<stop offset="0.857822" stop-color="#F2B53B"/>
</linearGradient>
<linearGradient id="paint3_linear_1_77" x1="148.974" y1="-27.368" x2="131.522" y2="167.761" gradientUnits="userSpaceOnUse">
<stop stop-color="#6100A5"/>
<stop offset="0.513692" stop-color="#D20661" stop-opacity="0.6"/>
<stop offset="0.922275" stop-color="#F2B53B"/>
</linearGradient>
<linearGradient id="paint4_linear_1_77" x1="172.376" y1="95.2841" x2="131.179" y2="121.328" gradientUnits="userSpaceOnUse">
<stop offset="0.258999" stop-color="#6100A5"/>
<stop offset="0.718376" stop-color="#D20661" stop-opacity="0.6"/>
<stop offset="1" stop-color="#F2B53B"/>
</linearGradient>
</defs>
</svg>
